Coordinates
version=1
nRows=30
nColumns=33
inDegrees=yes

Units are S.I. units (second, meters, Newtons, ...)
Angles are in degrees.

endheader
time	ground_thorax_rot_x	ground_thorax_rot_y	ground_thorax_rot_z	ground_thorax_tx	ground_thorax_ty	ground_thorax_tz	clav_prot_r	clav_elev_r	scapula_abduction_r	scapula_elevation_r	scapula_upward_rot_r	scapula_winging_r	shoulder_elv_r	plane_of_elev_r	axial_rot_r	elbow_flexion_r	pro_sup_r	wrist_flex_r	wrist_dev_r	clav_prot_l	clav_elev_l	scapula_abduction_l	scapula_elevation_l	scapula_upward_rot_l	scapula_winging_l	shoulder_elv_l	plane_of_elev_l	axial_rot_l	elbow_flexion_l	pro_sup_l	wrist_flex_l	wrist_dev_l	
5.1700	-0.035281	2.200458	11.047011	-0.103494	1.031708	0.012666	8.996421	-6.580294	16.599775	-0.694004	2.145183	-4.736061	-57.614972	-72.070044	85.665395	-57.910351	-129.767668	43.785198	-25.000000	8.865012	-0.779919	-10.603220	-21.959803	-36.884646	-2.419931	54.167888	-38.533271	0.395814	58.036077	28.097388	-1.735782	-25.000000	
5.1800	-0.380983	2.170737	11.067618	-0.103225	1.031536	0.012397	8.828150	-7.400647	16.104051	-1.211603	1.607625	-4.226003	-57.167418	-72.138469	85.693323	-57.580307	-130.337535	45.289525	-25.000000	8.662377	-0.302864	-10.119799	-22.333753	-36.640578	-2.646027	54.361347	-38.177398	0.223608	57.737086	28.522368	-1.806736	-25.000000	
5.1900	-0.742728	2.140791	11.083282	-0.102927	1.031454	0.012119	8.649960	-8.266113	15.585657	-1.762901	1.052779	-3.690031	-56.676403	-72.212645	85.726446	-57.232159	-130.946618	46.868513	-25.000000	8.456159	0.187601	-9.625213	-22.714902	-36.382900	-2.876220	54.573542	-37.800594	0.039561	57.407817	28.967500	-1.892509	-25.000000	
5.2000	-0.931160	2.121934	11.098817	-0.102761	1.031352	0.011980	8.541620	-8.778711	15.297807	-2.110953	0.774915	-3.381687	-56.351461	-72.226143	85.783734	-57.026013	-131.320261	47.740083	-25.000000	8.353347	0.388968	-9.383172	-22.857024	-36.245481	-2.979858	54.690602	-37.545713	-0.094333	57.178332	29.212293	-1.976208	-25.000000	
5.2100	-1.032011	2.107708	11.112211	-0.102640	1.031258	0.011920	8.468287	-9.102108	15.129780	-2.350547	0.646670	-3.193823	-56.103799	-72.209981	85.867943	-56.921734	-131.579391	48.247358	-25.000000	8.311316	0.440315	-9.285977	-22.877416	-36.175867	-3.013605	54.764297	-37.357391	-0.203379	57.021134	29.344460	-2.077281	-25.000000	
5.2200	-1.060672	2.096361	11.118043	-0.102550	1.031189	0.011929	8.419508	-9.269541	15.051763	-2.499809	0.639157	-3.101599	-55.895040	-72.176763	85.999407	-56.914867	-131.766846	48.467797	-25.000000	8.329066	0.361250	-9.329325	-22.796244	-36.174568	-2.982351	54.809593	-37.226509	-0.301502	56.929467	29.374762	-2.225724	-25.000000	
5.2300	-1.061171	2.086848	11.123759	-0.102442	1.031131	0.011967	8.376667	-9.358042	15.000633	-2.596519	0.676492	-3.049844	-55.682701	-72.150884	86.184982	-56.982529	-131.946376	48.579955	-25.000000	8.384503	0.229580	-9.458126	-22.683593	-36.221960	-2.917616	54.850584	-37.131668	-0.400311	56.897836	29.343464	-2.437513	-25.000000	
5.2400	-1.066011	2.092462	11.111960	-0.102313	1.031114	0.012016	8.305935	-9.449316	14.883085	-2.679734	0.674658	-2.969497	-55.333100	-72.165836	86.514643	-57.101537	-132.260354	48.785108	-24.999999	8.484497	0.066737	-9.685588	-22.569624	-36.336583	-2.820588	54.934206	-37.047865	-0.535754	56.903369	29.262573	-2.839840	-25.000000	
5.2500	-1.073980	2.108047	11.091601	-0.102155	1.031115	0.012064	8.214726	-9.534872	14.712610	-2.742404	0.635791	-2.869177	-54.884989	-72.225154	86.958357	-57.259062	-132.674264	49.059450	-24.999999	8.620277	-0.109545	-9.991464	-22.467876	-36.508832	-2.700425	55.045947	-36.977700	-0.701443	56.941339	29.139089	-3.385265	-25.000000	
5.2600	-1.081955	2.130024	11.051281	-0.101981	1.031138	0.012107	8.110201	-9.619103	14.506077	-2.792567	0.569409	-2.754256	-54.356745	-72.332660	87.500967	-57.447207	-133.168800	49.386952	-24.999999	8.791499	-0.296492	-10.372556	-22.375360	-36.726829	-2.555858	55.179983	-36.910530	-0.904866	56.991932	28.980552	-4.038341	-25.000000	
5.2700	-1.091430	2.140435	11.003253	-0.101767	1.031145	0.012125	8.017500	-9.686346	14.323564	-2.830772	0.511958	-2.655702	-53.872573	-72.468808	88.026365	-57.656094	-133.626681	49.688422	-24.999998	8.967679	-0.448078	-10.757191	-22.315174	-36.939403	-2.413547	55.303573	-36.845443	-1.115358	57.054041	28.817726	-4.632558	-24.999999	
5.2800	-1.102782	2.141543	10.935704	-0.101535	1.031120	0.012124	7.939150	-9.736703	14.171638	-2.859699	0.469401	-2.576222	-53.438983	-72.633588	88.540868	-57.901719	-134.047273	49.960228	-24.999996	9.153481	-0.566864	-11.153671	-22.283575	-37.144738	-2.269055	55.421669	-36.775606	-1.334805	57.142788	28.645268	-5.158201	-24.999999	
5.2900	-1.115975	2.123015	10.867909	-0.101266	1.031036	0.012100	7.887701	-9.751342	14.083163	-2.872675	0.467399	-2.536967	-53.137991	-72.807344	88.969657	-58.177218	-134.357687	50.139006	-24.999993	9.329962	-0.627038	-11.520009	-22.296568	-37.320357	-2.138913	55.514162	-36.700488	-1.531595	57.270687	28.469338	-5.496549	-24.999998	
5.3000	-1.130836	2.095568	10.801403	-0.100980	1.030896	0.012061	7.854230	-9.728217	14.038042	-2.864271	0.496918	-2.530436	-52.937769	-72.992685	89.354065	-58.493132	-134.595585	50.239853	-24.999988	9.508549	-0.645939	-11.883604	-22.346451	-37.487834	-2.013088	55.595111	-36.616793	-1.704282	57.459324	28.267714	-5.688921	-24.999997	
5.3100	-1.142393	2.086583	10.755828	-0.100693	1.030714	0.012033	7.809475	-9.645029	13.977786	-2.807903	0.542632	-2.542281	-52.754119	-73.180185	89.775561	-58.839905	-134.848497	50.253957	-24.999978	9.717723	-0.664375	-12.318487	-22.427284	-37.724512	-1.868075	55.688085	-36.506796	-1.822610	57.719488	27.958938	-5.785761	-24.999994	
5.3200	-1.154929	2.107616	10.720010	-0.100428	1.030526	0.012024	7.739111	-9.524615	13.866611	-2.713914	0.578975	-2.548574	-52.505903	-73.381084	90.306566	-59.224322	-135.187749	50.253389	-24.999961	9.969168	-0.710200	-12.851804	-22.517435	-38.044586	-1.691908	55.816427	-36.373696	-1.901556	58.060308	27.543794	-5.919747	-24.999990	
5.3300	-1.171690	2.150786	10.694606	-0.100174	1.030349	0.012034	7.647300	-9.375175	13.716472	-2.593231	0.614326	-2.551048	-52.209270	-73.581585	90.910930	-59.642150	-135.587009	50.242835	-24.999930	10.245976	-0.773623	-13.445428	-22.613381	-38.417933	-1.496439	55.973720	-36.221760	-1.930130	58.474015	27.053841	-6.084802	-24.999982	
5.3400	-1.200837	2.188772	10.665876	-0.099909	1.030195	0.012037	7.562795	-9.227534	13.587600	-2.481584	0.667483	-2.561505	-51.947565	-73.776507	91.483964	-60.097369	-135.951516	50.247165	-24.999875	10.503499	-0.815277	-13.990575	-22.708407	-38.741725	-1.315284	56.138108	-36.075525	-1.922755	58.952484	26.598995	-6.254320	-24.999969	
5.3500	-1.239020	2.220929	10.635968	-0.099627	1.030068	0.012039	7.486508	-9.078945	13.484254	-2.378810	0.744075	-2.582753	-51.725859	-73.956614	92.005661	-60.590047	-136.276987	50.264179	-24.999775	10.734026	-0.837422	-14.470840	-22.795221	-39.004101	-1.152999	56.308636	-35.938154	-1.876382	59.490647	26.191982	-6.428628	-24.999944	
5.3600	-1.288090	2.225958	10.597179	-0.099319	1.029969	0.012024	7.439453	-8.946926	13.450580	-2.306868	0.859001	-2.625578	-51.603887	-74.123003	92.403284	-61.124716	-136.504350	50.307522	-24.999598	10.908266	-0.816982	-14.814727	-22.866566	-39.137121	-1.031393	56.471171	-35.832142	-1.809691	60.086166	25.907806	-6.591428	-24.999899	
5.3700	-1.339848	2.214717	10.554842	-0.098998	1.029898	0.012003	7.415533	-8.818254	13.474698	-2.253144	1.010832	-2.690421	-51.559626	-74.273457	92.701246	-61.703811	-136.669849	50.362887	-24.999280	11.037092	-0.773232	-15.049516	-22.914653	-39.165855	-0.940467	56.635045	-35.748831	-1.722274	60.737867	25.717313	-6.753350	-24.999820	
5.3800	-1.388369	2.191176	10.514221	-0.098675	1.029858	0.011982	7.410049	-8.684349	13.548745	-2.210409	1.200840	-2.777688	-51.571334	-74.409704	92.921021	-62.324054	-136.806956	50.414843	-24.998709	11.130282	-0.722079	-15.200012	-22.934787	-39.114857	-0.871801	56.807021	-35.682787	-1.614646	61.442487	25.594791	-6.922673	-24.999678	
5.3900	-1.421256	2.180937	10.486164	-0.098383	1.029855	0.011982	7.403974	-8.520703	13.633574	-2.152145	1.418607	-2.881103	-51.563107	-74.532967	93.156566	-62.980669	-137.016261	50.425223	-24.997689	11.224551	-0.708130	-15.356949	-22.921111	-39.069970	-0.795746	57.009193	-35.600785	-1.473419	62.193156	25.444776	-7.125773	-24.999423	
5.4000	-1.438258	2.179103	10.470552	-0.098128	1.029894	0.011998	7.400879	-8.332904	13.736634	-2.084021	1.665639	-3.001515	-51.527746	-74.645252	93.413118	-63.668045	-137.308164	50.382798	-24.995858	11.319922	-0.732039	-15.520905	-22.874013	-39.033348	-0.712299	57.241221	-35.497974	-1.300293	62.979159	25.263464	-7.357364	-24.998966	
5.4100	-1.423715	2.183691	10.470832	-0.097926	1.029981	0.012027	7.409754	-8.103865	13.874124	-1.992158	1.945891	-3.150950	-51.446085	-74.752013	93.733767	-64.384812	-137.763021	50.230930	-24.992589	11.420033	-0.826171	-15.709524	-22.777937	-39.039860	-0.615542	57.512245	-35.367321	-1.088677	63.789775	25.021063	-7.638673	-24.998149	
5.4200	-1.388216	2.189693	10.484468	-0.097768	1.030102	0.012066	7.431636	-7.849046	14.046644	-1.888345	2.253976	-3.323905	-51.313821	-74.849873	94.107823	-65.131345	-138.348822	49.980712	-24.986699	11.521909	-0.967430	-15.911084	-22.647155	-39.071122	-0.510636	57.816863	-35.202678	-0.846765	64.610532	24.723309	-7.932969	-24.996684	
5.4300	-1.336512	2.193333	10.509434	-0.097648	1.030247	0.012104	7.470570	-7.579884	14.259115	-1.780246	2.583470	-3.517737	-51.122398	-74.938674	94.540160	-65.908025	-139.052662	49.620024	-24.976248	11.621601	-1.141026	-16.114154	-22.490521	-39.114321	-0.402641	58.150232	-34.995496	-0.579962	65.427215	24.362597	-8.189166	-24.994061	
5.4400	-1.292517	2.190596	10.538266	-0.097539	1.030395	0.012134	7.523017	-7.331369	14.502625	-1.694591	2.922439	-3.716272	-50.876149	-75.010937	94.992769	-66.715553	-139.772846	49.192141	-24.957247	11.710676	-1.294834	-16.286341	-22.334593	-39.115851	-0.303610	58.498301	-34.741492	-0.303562	66.224320	23.962595	-8.315837	-24.989358	
5.4500	-1.242008	2.166992	10.572113	-0.097453	1.030538	0.012143	7.604042	-7.088957	14.801801	-1.617891	3.270051	-3.933683	-50.532097	-75.080373	95.538441	-67.563481	-140.597392	48.572412	-24.923996	11.781373	-1.445406	-16.420417	-22.174234	-39.097969	-0.218932	58.862566	-34.436128	-0.004864	66.994112	23.450447	-8.201557	-24.980950	
5.4600	-1.205000	2.124947	10.604436	-0.097365	1.030657	0.012134	7.707821	-6.879110	15.142762	-1.569057	3.614187	-4.154978	-50.083224	-75.133602	96.148290	-68.450061	-141.421541	47.812584	-24.862238	11.828493	-1.556052	-16.493531	-22.025153	-39.016783	-0.156005	59.239831	-34.081813	0.297760	67.722652	22.860250	-7.770535	-24.965840	
